<?xml version="1.0" encoding="utf-8"?>
<!-- Generator: Adobe Illustrator 23.0.4, SVG Export Plug-In . SVG Version: 6.00 Build 0)  -->
<svg version="1.1" id="Layer_1" xmlns="http://www.w3.org/2000/svg" xmlns:xlink="http://www.w3.org/1999/xlink" x="0px" y="0px"
	 viewBox="0 0 116 117" style="enable-background:new 0 0 116 117;" xml:space="preserve">
<style type="text/css">
	.st0{fill-rule:evenodd;clip-rule:evenodd;fill:#FFFFFF;}
</style>
<g>
	<path class="st0" d="M111.4,57.4c-0.7,0-1.4-0.1-2.1-0.1l0,0c-13.1-0.8-32.2-1.9-40.4-10.1C60.7,39,59.2,19.7,58.2,6.4
		C58.1,5.5,58.1,4.8,58,4c-0.1,0.8-0.1,1.5-0.2,2.4c-1,13.3-2.5,32.7-10.7,40.8c-8.2,8.2-27.3,9.3-40.4,10.1l0,0l0,0
		c-0.7,0-1.4,0.1-2.1,0.1h0l0,0v2.2l0,0h0c0.7,0,1.4,0.1,2.1,0.1l0,0l0,0l0,0c13.1,0.8,32.2,1.9,40.4,10.1
		c8.2,8.2,9.7,27.5,10.7,40.8c0.1,0.8,0.1,1.6,0.2,2.4c0.1-0.8,0.1-1.5,0.2-2.4c1-13.3,2.5-32.7,10.7-40.8
		c8.2-8.2,27.3-9.3,40.4-10.1l0,0c0.7,0,1.4-0.1,2.1-0.1h0h0L111.4,57.4C111.4,57.4,111.4,57.4,111.4,57.4z"/>
</g>
</svg>
